<?xml version="1.0" encoding="utf-8"?>
<!-- Generator: Adobe Illustrator 25.2.2, SVG Export Plug-In . SVG Version: 6.00 Build 0)  -->
<svg version="1.1" id="Ebene_1" xmlns="http://www.w3.org/2000/svg" xmlns:xlink="http://www.w3.org/1999/xlink" x="0px" y="0px"
	 viewBox="0 0 100 100" style="enable-background:new 0 0 100 100;" xml:space="preserve">
<style type="text/css">
	.st0{fill:#FFFFFF;}
</style>
<path class="st0" d="M68.2,50.9c7.2-2.5,12.4-8.3,12.4-16.8c0-2.1-1.1-7.4-5-10.7c-2.6-2.2-6.4-4.8-18.5-5.1
	c-2.5-0.1-10.1,0.2-10.1,0.2v0.4c2.2,1.7,4.5,4.4,5.6,7.5c1.2,0,2.9-0.1,4.6,0c4.9,0.3,7,1.2,9.2,2.9c2.2,1.7,3.4,4.7,3.4,7.4
	c0,3.7-1.8,7.5-7.1,9.7c-4.3,1.8-9.5,2.1-9.5,2.1v1.3c0,0,3.1,1.5,6.2,5.6c2.7,3.5,18.3,26.5,18.3,26.5h12.9
	C90.5,81.9,69.7,52.9,68.2,50.9z M39.9,47.6C44.8,44.7,48,40.4,48,34c0-6.9-4.1-15.9-21.1-15.9c-8.3,0-17.4,0.3-17.4,0.3v63.5H24
	c18.5,0,28.3-6.8,28.3-19.7C52.3,54.5,47.5,49.4,39.9,47.6z M27,73h-7.2V26.3c0.1,0,3.2,0,5.2,0c8,0,12.5,4.2,12.6,9.9
	c0.1,3.5-1,6.8-4.5,9.2c-2.9,2-6.9,2.6-6.9,2.6v1.5c0,0,5.6,0.8,8.4,2.2c5.3,2.5,6.8,6.3,6.9,11.2C41.6,70.6,34,73,27,73z"/>
</svg>
